<svg xmlns="http://www.w3.org/2000/svg" width="250" height="250" viewBox="0 0 250 250"><rect width="100%" height="100%" fill="#DDDDDD"/><path fill="#999999" d="M67.51 112.915h4.03v24.58h-2.35q-.54 0-.91-.18-.36-.18-.7-.6l-12.84-16.39q.11 1.12.11 2.07v15.1h-4.03v-24.58h2.39q.29 0 .51.02.21.03.37.11.16.07.31.22.16.14.34.38l12.89 16.45q-.05-.59-.08-1.17-.04-.58-.04-1.07zm16.56 6.87q1.94 0 3.53.62 1.59.63 2.72 1.79t1.74 2.82q.61 1.67.61 3.72 0 2.08-.61 3.74-.61 1.67-1.74 2.84-1.13 1.18-2.72 1.81t-3.53.63q-1.96 0-3.55-.63-1.6-.63-2.73-1.81-1.13-1.17-1.75-2.84-.62-1.66-.62-3.74 0-2.05.62-3.72.62-1.66 1.75-2.82t2.73-1.79q1.59-.62 3.55-.62m0 14.73q2.18 0 3.22-1.46 1.05-1.46 1.05-4.28t-1.05-4.3q-1.04-1.48-3.22-1.48-2.21 0-3.27 1.49-1.07 1.48-1.07 4.29 0 2.8 1.07 4.27 1.06 1.47 3.27 1.47m25.91-6.3h7.82l-2.99-8.18q-.23-.54-.46-1.29-.24-.75-.48-1.62-.22.87-.46 1.63-.24.75-.46 1.31zm6.24-15.3 9.65 24.58h-3.53q-.6 0-.97-.3-.38-.3-.56-.74l-1.84-5.01h-10.18l-1.84 5.01q-.13.39-.53.72-.39.32-.96.32h-3.57l9.67-24.58zm11.59-.68h4.2v25.26h-4.2zm12.6 12.92v7.82q.71.86 1.55 1.22t1.78.36q.97 0 1.74-.35.78-.35 1.32-1.09t.83-1.88q.29-1.15.29-2.75 0-2.87-.95-4.16-.95-1.28-2.74-1.28-1.2 0-2.11.55-.9.55-1.71 1.56m0-12.92v9.96q1.05-1.11 2.33-1.76 1.29-.65 2.94-.65 1.51 0 2.73.59 1.21.6 2.07 1.71t1.32 2.69.46 3.56q0 2.12-.53 3.86-.53 1.73-1.51 2.96-.97 1.24-2.35 1.91-1.38.69-3.06.69-.82 0-1.48-.17-.66-.16-1.22-.45t-1.03-.7q-.47-.42-.89-.93l-.19 1.17q-.1.45-.35.63-.25.19-.67.19h-2.77v-25.26zm25.92 7.82h4.2v17.44h-2.57q-.83 0-1.05-.77l-.29-1.39q-1.07 1.09-2.36 1.76t-3.04.67q-1.43 0-2.53-.48-1.1-.49-1.84-1.37-.75-.89-1.13-2.1-.39-1.22-.39-2.68v-11.08h4.2v11.08q0 1.6.74 2.48.74.87 2.22.87 1.09 0 2.04-.48.95-.49 1.8-1.34zm12.55 17.44h-4.2v-17.44h2.57q.81 0 1.07.76l.27 1.29q.46-.51.96-.93.5-.43 1.07-.73.57-.31 1.22-.49.66-.17 1.44-.17 1.65 0 2.71.89 1.07.89 1.59 2.37.41-.87 1.02-1.49t1.35-1.01q.73-.39 1.55-.58.83-.18 1.66-.18 1.44 0 2.57.44 1.12.44 1.88 1.29.77.85 1.17 2.07.4 1.23.4 2.81v11.1h-4.2v-11.1q0-1.67-.73-2.51t-2.15-.84q-.64 0-1.19.22-.56.22-.97.64-.42.41-.66 1.04t-.24 1.45v11.1h-4.21v-11.1q0-1.75-.71-2.55-.7-.8-2.06-.8-.92 0-1.71.45t-1.47 1.23z"/></svg>